<?xml version="1.0" standalone="no"?>
<!DOCTYPE svg PUBLIC "-//W3C//DTD SVG 20010904//EN"
 "http://www.w3.org/TR/2001/REC-SVG-20010904/DTD/svg10.dtd">
<svg version="1.0" xmlns="http://www.w3.org/2000/svg"
 width="1000.000000pt" height="1000.000000pt" viewBox="0 0 1000.000000 1000.000000"
 preserveAspectRatio="xMidYMid meet">

<g transform="translate(0.000000,1000.000000) scale(0.100000,-0.100000)"
fill="#000000" stroke="none">
<path d="M2095 8566 c-80 -13 -120 -30 -207 -89 -25 -18 -74 -48 -108 -67 -78
-44 -146 -112 -190 -190 -19 -34 -49 -83 -67 -108 -60 -89 -76 -126 -89 -217
-20 -134 -20 -5656 0 -5791 14 -98 18 -106 80 -200 22 -34 59 -92 81 -129 47
-79 118 -147 204 -195 34 -19 77 -45 94 -57 94 -65 117 -75 212 -89 82 -12
502 -14 2933 -12 3108 3 2919 0 3010 63 26 18 85 55 132 81 108 62 192 146
254 254 26 47 63 106 81 132 63 91 60 -98 63 3010 2 2432 0 2850 -12 2933 -14
95 -24 118 -89 212 -12 17 -38 60 -57 94 -48 86 -116 157 -195 204 -37 22 -95
59 -129 81 -94 62 -102 66 -200 80 -128 19 -5678 19 -5801 0z m5079 -1662
c210 -53 389 -224 449 -430 l15 -51 -1316 -809 c-724 -445 -1321 -808 -1326
-806 -15 5 -2600 1594 -2615 1608 -12 11 -12 20 -2 56 61 204 225 367 432 428
62 18 141 18 2183 19 1892 1 2125 -1 2180 -15z m-3560 -1811 c677 -417 1251
-768 1276 -782 66 -37 156 -36 230 5 30 16 606 369 1280 783 674 415 1231 756
1238 758 10 4 12 -213 10 -1128 l-3 -1134 -27 -80 c-65 -189 -219 -344 -408
-408 l-65 -22 -2110 -3 c-2362 -3 -2179 -8 -2338 70 -110 55 -218 163 -271
269 -75 152 -70 56 -73 1313 -4 1054 -3 1128 13 1122 9 -4 571 -347 1248 -763z"/>
</g>
</svg>
