<?xml version="1.0" standalone="no"?>
<!DOCTYPE svg PUBLIC "-//W3C//DTD SVG 20010904//EN"
 "http://www.w3.org/TR/2001/REC-SVG-20010904/DTD/svg10.dtd">
<svg version="1.0" xmlns="http://www.w3.org/2000/svg"
 width="64.000000pt" height="64.000000pt" viewBox="0 0 64.000000 64.000000"
 preserveAspectRatio="xMidYMid meet">

<g transform="translate(0.000000,64.000000) scale(0.100000,-0.100000)"
fill="#000000" stroke="none">
<path d="M65 575 l-25 -24 0 -231 0 -231 25 -24 24 -25 231 0 231 0 24 25 25
24 0 231 0 231 -25 24 -24 25 -231 0 -231 0 -24 -25z m319 -57 c87 -26 157
-136 143 -224 -12 -74 -78 -157 -132 -166 -17 -3 -21 4 -25 44 -5 44 -4 48 21
59 49 20 62 42 55 96 -3 26 -7 62 -8 78 -2 24 -7 29 -23 26 -11 -2 -54 -4 -95
-4 -41 0 -84 2 -95 4 -16 3 -21 -2 -23 -26 -1 -16 -5 -52 -8 -78 -7 -54 6 -76
56 -97 18 -7 27 -17 23 -26 -8 -21 -50 -17 -67 7 -8 12 -19 20 -25 18 -20 -7
39 -69 65 -69 19 0 25 -5 22 -17 -5 -24 -35 -18 -77 16 -98 77 -105 217 -16
306 59 60 127 77 209 53z"/>
</g>
</svg>
